<svg width="48" height="48" viewBox="0 0 48 48" fill="none" xmlns="http://www.w3.org/2000/svg">
<rect width="48" height="48" fill="#112138"/>
<path d="M17.4883 6C12.4635 9.14385 9.12109 14.7266 9.12109 21.0908C9.1211 30.9156 17.0854 38.8799 26.9102 38.8799C33.2747 38.8799 38.8572 35.5369 42.001 30.5117C39.1708 37.2604 32.5021 42.001 24.7256 42.001C14.3838 42.001 6 33.6172 6 23.2754C6.00003 15.4993 10.74 8.83042 17.4883 6Z" fill="#FFF9E2"/>
<path d="M32.6527 9.02615L32.8164 10.2276C33.0395 11.8648 34.1938 13.2232 35.7736 13.7075C34.1938 14.1919 33.0395 15.5502 32.8164 17.1875L32.6527 18.3889L32.489 17.1875C32.2659 15.5503 31.1116 14.1919 29.5317 13.7075C31.1116 13.2232 32.2659 11.8648 32.489 10.2276L32.6527 9.02615Z" fill="#FFF9E2"/>
<path d="M18.1919 17.6399L18.3011 18.4409C18.4498 19.5324 19.2193 20.4379 20.2726 20.7609C19.2193 21.0838 18.4498 21.9893 18.3011 23.0808L18.1919 23.8818L18.0828 23.0808C17.9341 21.9893 17.1645 21.0838 16.1113 20.7609C17.1645 20.4379 17.9341 19.5324 18.0828 18.4409L18.1919 17.6399Z" fill="#FFF9E2"/>
<path d="M26.494 28.5632L26.5704 29.1239C26.6745 29.8879 27.2132 30.5218 27.9505 30.7479C27.2132 30.9739 26.6745 31.6078 26.5704 32.3718L26.494 32.9325L26.4176 32.3718C26.3135 31.6078 25.7748 30.9739 25.0376 30.7479C25.7748 30.5218 26.3135 29.8879 26.4176 29.1239L26.494 28.5632Z" fill="#FFF9E2"/>
</svg>
