<svg width="800" height="800" viewBox="0 0 800 800" fill="none" xmlns="http://www.w3.org/2000/svg">
<path d="M295.973 112C215.511 162.375 162 251.808 162 353.738C162 511.139 289.599 638.738 447 638.738C548.931 638.738 638.362 585.227 688.737 504.765C643.373 612.836 536.551 688.738 412 688.738C246.315 688.738 112 554.424 112 388.738C112 264.187 187.901 157.365 295.973 112Z" fill="#FFF9E2"/>
<path d="M539 160.452L544.895 203.716C546.474 215.305 554.645 224.919 565.827 228.348L589 235.452L565.827 242.557C554.645 245.985 546.474 255.6 544.895 267.189L539 310.452L533.105 267.189C531.526 255.6 523.355 245.985 512.173 242.557L489 235.452L512.173 228.348C523.355 224.919 531.526 215.305 533.105 203.716L539 160.452Z" fill="#FFF9E2"/>
<path d="M307.5 298.452L310.58 320.945C312.168 332.541 320.355 342.154 331.549 345.569L341 348.452L331.549 351.335C320.355 354.75 312.168 364.364 310.58 375.959L307.5 398.452L304.42 375.959C302.832 364.364 294.645 354.75 283.451 351.335L274 348.452L283.451 345.569C294.645 342.154 302.832 332.541 304.42 320.945L307.5 298.452Z" fill="#FFF9E2"/>
<path d="M440.5 473.452L441.877 483.485C443.469 495.083 451.662 504.696 462.862 508.106L464 508.452L462.862 508.799C451.662 512.208 443.469 521.821 441.877 533.42L440.5 543.452L439.123 533.42C437.531 521.821 429.338 512.208 418.138 508.799L417 508.452L418.138 508.106C429.338 504.696 437.531 495.083 439.123 483.485L440.5 473.452Z" fill="#FFF9E2"/>
</svg>
